<svg xmlns="http://www.w3.org/2000/svg" version="1.1" xmlns:xlink="http://www.w3.org/1999/xlink" xmlns:svgjs="http://svgjs.dev/svgjs" width="128" height="128" viewBox="0 0 128 128"><g transform="matrix(0.8046875,0,0,0.8046875,12.41184074821259,12.814873242367177)"><svg viewBox="0 0 98 98" data-background-color="#6a2055" preserveAspectRatio="xMidYMid meet" height="127" width="128" xmlns="http://www.w3.org/2000/svg" xmlns:xlink="http://www.w3.org/1999/xlink"><g id="tight-bounds" transform="matrix(1,0,0,1,0.08387967645792571,0.08387967645792571)"><svg viewBox="0 0 97.83224064708415 97.83224064708415" height="97.83224064708415" width="97.83224064708415"><g><svg></svg></g><g><svg viewBox="0 0 97.83224064708415 97.83224064708415" height="97.83224064708415" width="97.83224064708415"><g><path d="M0 48.916c0-27.016 21.9-48.916 48.916-48.916 27.016 0 48.916 21.9 48.916 48.916 0 27.016-21.9 48.916-48.916 48.916-27.016 0-48.916-21.9-48.916-48.916zM48.916 93.244c24.481 0 44.328-19.846 44.328-44.328 0-24.481-19.846-44.328-44.328-44.327-24.481 0-44.328 19.846-44.327 44.327 0 24.481 19.846 44.328 44.327 44.328z" data-fill-palette-color="tertiary" fill="#f4e2de" stroke="transparent"></path><ellipse rx="46.95947551060039" ry="46.95947551060039" cx="48.916120323542074" cy="48.916120323542074" fill="#f4e2de" stroke="transparent" stroke-width="0" fill-opacity="1" data-fill-palette-color="tertiary"></ellipse></g><g transform="matrix(1,0,0,1,30.85236309412399,23.47539391502934)"><svg viewBox="0 0 36.12751445883617 50.88145281702547" height="50.88145281702547" width="36.12751445883617"><g><svg viewBox="0 0 36.12751445883617 50.88145281702547" height="50.88145281702547" width="36.12751445883617"><g><svg viewBox="0 0 36.12751445883617 50.88145281702547" height="50.88145281702547" width="36.12751445883617"><g id="textblocktransform"><svg viewBox="0 0 36.12751445883617 50.88145281702547" height="50.88145281702547" width="36.12751445883617" id="textblock"><g><svg viewBox="0 0 36.12751445883617 50.88145281702547" height="50.88145281702547" width="36.12751445883617"><g><svg viewBox="0 0 36.12751445883617 50.88145281702547" height="50.88145281702547" width="36.12751445883617"><g><svg xmlns="http://www.w3.org/2000/svg" xmlns:xlink="http://www.w3.org/1999/xlink" version="1.1" x="0" y="0" viewBox="95 29.5 322 453.5" enable-background="new 0 0 512 512" xml:space="preserve" height="50.88145281702547" width="36.12751445883617" class="icon-icon-0" data-fill-palette-color="quaternary" id="icon-0"><g fill="#6a2055" data-fill-palette-color="quaternary"><path d="M282.817 220.66c-8.229 2.549-16.95 3.842-25.921 3.842-9.103 0-17.942-1.33-26.272-3.951-2.108-0.662-4.352 0.507-5.014 2.614-0.663 2.106 0.508 4.351 2.613 5.013 9.108 2.866 18.755 4.319 28.673 4.319 9.773 0 19.291-1.413 28.286-4.2 2.109-0.653 3.289-2.893 2.636-5.002S284.924 220.004 282.817 220.66z" fill="#6a2055" data-fill-palette-color="quaternary"></path><path d="M274.478 244.67c-5.593 1.108-11.527 1.67-17.64 1.67-6.199 0-12.214-0.578-17.877-1.717-2.716-0.544-5.343 1.209-5.888 3.916-0.545 2.707 1.208 5.343 3.915 5.888 6.312 1.27 12.99 1.913 19.85 1.913 6.764 0 13.353-0.626 19.583-1.86 2.709-0.537 4.47-3.168 3.933-5.876C279.817 245.896 277.192 244.132 274.478 244.67z" fill="#6a2055" data-fill-palette-color="quaternary"></path><path d="M381.414 347.581c-21.781-27.065-51.992-46.506-85.414-55.065V273c0-0.262-0.018-0.524-0.022-0.786C326.154 257.52 347 226.532 347 190.764V162c0-3.12-1.589-5.868-4-7.482V131v-14.972c0-47.712-38.804-86.528-86.5-86.528S170 68.316 170 116.028V131v23.518c-2.411 1.615-4 4.362-4 7.482v28.764c0 35.378 20.395 66.075 50.039 80.96C216.025 272.149 216 272.574 216 273v19.516c-33.422 8.559-63.632 28.001-85.414 55.065C107.638 376.094 95 412.028 95 448.763V478c0 2.761 2.238 5 5 5h312c2.762 0 5-2.239 5-5v-29.237C417 412.028 404.362 376.094 381.414 347.581zM216.555 310.604c1.999 11.973 9.332 22.157 19.468 28.027l-11.617 3.03c-0.883 0.23-1.685 0.697-2.32 1.35l-15.696 16.12 0.91-29.887L216.555 310.604zM295.533 310.11l9.502 19.135 0.91 29.887-15.696-16.12c-0.636-0.653-1.438-1.12-2.32-1.35l-11.847-3.091C286.304 332.611 293.664 322.257 295.533 310.11zM329 162v28.764c0 39.992-32.523 72.528-72.5 72.528S184 230.756 184 190.764V162c0-3.12-1.589-5.868-4-7.482V136h153v18.518C330.589 156.132 329 158.88 329 162zM180 116.028c0-42.198 34.317-76.528 76.5-76.528S333 73.831 333 116.028V126H180V116.028zM256.5 281.292c10.324 0 20.249-1.743 29.5-4.942v20.092V304c0 15.781-12.251 28.746-27.74 29.906-0.602-0.253-1.25-0.388-1.923-0.389-0.057-0.004-0.112-0.005-0.169-0.007-0.059 0.002-0.115 0.004-0.173 0.008-0.689 0-1.354 0.144-1.968 0.41C238.402 332.908 226 319.879 226 304v-7.558-20.446C235.534 279.421 245.803 281.292 256.5 281.292zM407 473h-58.101c0.065-0.323 0.101-0.657 0.101-1v-39c0-2.761-2.238-5-5-5s-5 2.239-5 5v39c0 0.343 0.035 0.677 0.101 1h-78.201c0.065-0.323 0.101-0.657 0.101-1V360c0-2.761-2.238-5-5-5s-5 2.239-5 5v112c0 0.343 0.035 0.677 0.101 1h-78.201c0.065-0.323 0.101-0.657 0.101-1v-39c0-2.761-2.238-5-5-5s-5 2.239-5 5v39c0 0.343 0.035 0.677 0.101 1H105v-24.237c0-34.462 11.854-68.169 33.376-94.912 18.13-22.526 42.485-39.398 69.636-48.527l-10.156 20.453c-0.32 0.645-0.497 1.352-0.52 2.071l-1.334 43.834c-0.062 2.061 1.146 3.949 3.045 4.755 0.631 0.267 1.294 0.397 1.952 0.397 1.322 0 2.622-0.525 3.583-1.512l23.695-24.335 26.863-7.008c0.287 0.006 0.571 0.021 0.859 0.021 0.391 0 0.775-0.019 1.163-0.029l26.894 7.016 23.695 24.335c0.961 0.987 2.26 1.512 3.583 1.512 0.658 0 1.321-0.13 1.952-0.397 1.898-0.806 3.107-2.694 3.045-4.755l-1.334-43.834c-0.022-0.72-0.199-1.426-0.52-2.071l-10.089-20.317c26.988 9.16 51.194 25.976 69.234 48.391C395.146 380.593 407 414.3 407 448.763V473z" fill="#6a2055" data-fill-palette-color="quaternary"></path></g></svg></g></svg></g></svg></g></svg></g></svg></g><g></g></svg></g></svg></g></svg></g><defs></defs></svg><rect width="97.83224064708415" height="97.83224064708415" fill="none" stroke="none" visibility="hidden"></rect></g></svg></g></svg>