<svg xmlns="http://www.w3.org/2000/svg" version="1.1" xmlns:xlink="http://www.w3.org/1999/xlink" xmlns:svgjs="http://svgjs.dev/svgjs" width="2000" height="1999" viewBox="0 0 2000 1999"><g transform="matrix(1,0,0,1,-0.431486880466764,-0.4312711370263287)"><svg viewBox="0 0 343 343" data-background-color="#6a2055" preserveAspectRatio="xMidYMid meet" height="1999" width="2000" xmlns="http://www.w3.org/2000/svg" xmlns:xlink="http://www.w3.org/1999/xlink"><g id="tight-bounds" transform="matrix(1,0,0,1,0.0740000000000407,0.07400000000001228)"><svg viewBox="0 0 342.85155851775386 342.85155851775386" height="342.85155851775386" width="342.85155851775386"><g><svg></svg></g><g><svg viewBox="0 0 342.85155851775386 342.85155851775386" height="342.85155851775386" width="342.85155851775386"><g><path d="M0 171.426c0-94.676 76.75-171.426 171.426-171.426 94.676 0 171.426 76.75 171.426 171.426 0 94.676-76.75 171.426-171.426 171.426-94.676 0-171.426-76.75-171.426-171.426zM171.426 340.036c93.121 0 168.61-75.489 168.61-168.61 0-93.121-75.489-168.61-168.61-168.61-93.121 0-168.61 75.489-168.61 168.61 0 93.121 75.489 168.61 168.61 168.61z" data-fill-palette-color="tertiary" fill="#f4e2de" stroke="transparent"></path><ellipse rx="164.56874808852186" ry="164.56874808852186" cx="171.42577925887693" cy="171.42577925887693" fill="#f4e2de" stroke="transparent" stroke-width="0" fill-opacity="1" data-fill-palette-color="tertiary"></ellipse></g><g transform="matrix(1,0,0,1,64.84655864529837,101.99690707785017)"><svg viewBox="0 0 213.1584412271571 138.85774436205352" height="138.85774436205352" width="213.1584412271571"><g><svg viewBox="0 0 213.1584412271571 138.85774436205352" height="138.85774436205352" width="213.1584412271571"><g><svg viewBox="0 0 213.1584412271571 138.85774436205352" height="138.85774436205352" width="213.1584412271571"><g transform="matrix(1,0,0,1,0,83.65758192110611)"><svg viewBox="0 0 213.1584412271571 55.200162440947416" height="55.200162440947416" width="213.1584412271571"><g id="textblocktransform"><svg viewBox="0 0 213.1584412271571 55.200162440947416" height="55.200162440947416" width="213.1584412271571" id="textblock"><g><svg viewBox="0 0 213.1584412271571 31.22281565138675" height="31.22281565138675" width="213.1584412271571"><g transform="matrix(1,0,0,1,0,0)"><svg width="213.1584412271571" viewBox="0.9 -36.15 305.82000000000005 44.8" height="31.22281565138675" data-palette-color="#6a2055"><path d="M0.9 0L6.95-34.3 11.7-34.3 9.1-19.6 27.8-19.6 30.4-34.3 35.15-34.3 29.1 0 24.35 0 27.1-15.45 8.4-15.45 5.65 0 0.9 0ZM45.4 0.6Q41.55 0.6 39.35-1.83 37.15-4.25 37.15-8.95L37.15-8.95Q37.15-14.3 38.8-18.38 40.45-22.45 43.32-24.68 46.2-26.9 49.75-26.9L49.75-26.9Q52.5-26.9 54.2-26.05 55.9-25.2 56.85-23.3L56.85-23.3 57.15-23.3 58.7-26.3 62.05-26.3 60.8-19.65Q58.1-5 58.1-4.4L58.1-4.4Q58.1-3.05 59.6-3.05L59.6-3.05 61.6-3.05 61.1-0.2Q60.6 0.1 59.72 0.35 58.85 0.6 57.8 0.6L57.8 0.6Q54.15 0.6 54.15-3.15L54.15-3.15Q54.15-3.8 54.2-4.15L54.2-4.15 53.95-4.15Q52.6-1.85 50.3-0.63 48 0.6 45.4 0.6L45.4 0.6ZM46.5-3.05Q49.65-3.05 51.72-5.3 53.8-7.55 54.75-10.78 55.7-14 55.7-17.05L55.7-17.05Q55.7-20.15 54.42-21.7 53.15-23.25 50.35-23.25L50.35-23.25Q47.6-23.25 45.65-21.35 43.7-19.45 42.72-16.25 41.75-13.05 41.75-9.2L41.75-9.2Q41.75-3.05 46.5-3.05L46.5-3.05ZM64.55 0L70.9-36.15 75.3-36.15 68.95 0 64.55 0ZM84.29 0.6Q80.44 0.6 78.24-1.83 76.04-4.25 76.04-8.95L76.04-8.95Q76.04-14.3 77.69-18.38 79.34-22.45 82.22-24.68 85.09-26.9 88.64-26.9L88.64-26.9Q91.39-26.9 93.09-26.05 94.79-25.2 95.74-23.3L95.74-23.3 96.04-23.3 97.59-26.3 100.94-26.3 99.69-19.65Q96.99-5 96.99-4.4L96.99-4.4Q96.99-3.05 98.49-3.05L98.49-3.05 100.49-3.05 99.99-0.2Q99.49 0.1 98.62 0.35 97.74 0.6 96.69 0.6L96.69 0.6Q93.04 0.6 93.04-3.15L93.04-3.15Q93.04-3.8 93.09-4.15L93.09-4.15 92.84-4.15Q91.49-1.85 89.19-0.63 86.89 0.6 84.29 0.6L84.29 0.6ZM85.39-3.05Q88.54-3.05 90.62-5.3 92.69-7.55 93.64-10.78 94.59-14 94.59-17.05L94.59-17.05Q94.59-20.15 93.32-21.7 92.04-23.25 89.24-23.25L89.24-23.25Q86.49-23.25 84.54-21.35 82.59-19.45 81.62-16.25 80.64-13.05 80.64-9.2L80.64-9.2Q80.64-3.05 85.39-3.05L85.39-3.05ZM103.44 0L109.79-36.15 114.19-36.15 107.84 0 103.44 0ZM128.69 0L134.74-34.3 152.09-34.3Q156.84-34.3 159.29-31.98 161.74-29.65 161.74-25.65L161.74-25.65Q161.74-21.75 159.46-18.8 157.19-15.85 153.54-14.75L153.54-14.75 158.79 0 153.69 0 148.74-14.15 135.94-14.15 133.44 0 128.69 0ZM136.69-18.3L149.54-18.3Q152.64-18.3 154.74-20.23 156.84-22.15 156.84-25.4L156.84-25.4Q156.84-27.7 155.51-28.93 154.19-30.15 151.59-30.15L151.59-30.15 138.74-30.15 136.69-18.3ZM176.53 0.6Q170.68 0.6 167.81-1.95 164.93-4.5 164.93-9.8L164.93-9.8Q164.93-14.65 166.43-18.53 167.93-22.4 171.13-24.65 174.33-26.9 179.13-26.9L179.13-26.9Q184.13-26.9 186.78-24.6 189.43-22.3 189.43-17.85L189.43-17.85Q189.43-16.3 189.03-14.15L189.03-14.15 188.63-11.95 169.58-11.95Q169.43-11.25 169.43-10.05L169.43-10.05Q169.43-6.5 171.16-4.78 172.88-3.05 176.43-3.05L176.43-3.05Q179.28-3.05 181.31-4.5 183.33-5.95 183.83-8.95L183.83-8.95 188.13-8.95Q187.38-4.35 184.18-1.88 180.98 0.6 176.53 0.6L176.53 0.6ZM170.23-15.6L184.78-15.6Q184.98-16.3 184.98-17.55L184.98-17.55Q184.98-23.25 178.98-23.25L178.98-23.25Q175.58-23.25 173.36-21.28 171.13-19.3 170.23-15.6L170.23-15.6ZM202.88 0.6Q197.58 0.6 195.16-1.9 192.73-4.4 192.73-9.65L192.73-9.65Q192.73-14.15 194.06-18.05 195.38-21.95 198.33-24.43 201.28-26.9 205.83-26.9L205.83-26.9Q210.93-26.9 213.21-24.63 215.48-22.35 215.48-18.4L215.48-18.4Q215.48-17.75 215.38-16.55L215.38-16.55 210.88-16.55Q210.93-17.05 210.93-18L210.93-18Q210.93-20.45 209.86-21.85 208.78-23.25 205.98-23.25L205.98-23.25Q202.38-23.25 200.38-20.7 198.38-18.15 197.68-14.2L197.68-14.2Q197.33-12.15 197.33-9.9L197.33-9.9Q197.33-6.25 198.68-4.65 200.03-3.05 202.73-3.05L202.73-3.05Q205.83-3.05 207.63-4.98 209.43-6.9 209.98-9.75L209.98-9.75 214.23-9.75Q213.48-5.2 210.63-2.3 207.78 0.6 202.88 0.6L202.88 0.6ZM222.83-31.4L223.68-36.15 228.03-36.15 227.18-31.4 222.83-31.4ZM217.33 0L221.98-26.3 226.38-26.3 221.73 0 217.33 0ZM226.73 8.65L232.88-26.3 236.13-26.3 236.13-22.75 236.43-22.75Q237.98-24.8 240.1-25.85 242.23-26.9 244.68-26.9L244.68-26.9Q248.93-26.9 251.25-24.35 253.58-21.8 253.58-16.5L253.58-16.5Q253.58-11.4 251.93-7.5 250.28-3.6 247.4-1.5 244.53 0.6 240.98 0.6L240.98 0.6Q235.58 0.6 233.48-3L233.48-3 233.18-3 231.13 8.65 226.73 8.65ZM240.38-3.05Q244.48-3.05 246.73-6.9 248.98-10.75 248.98-16.7L248.98-16.7Q248.98-20.25 247.65-21.75 246.33-23.25 243.43-23.25L243.43-23.25Q240.58-23.25 238.6-21.28 236.63-19.3 235.63-16.1 234.63-12.9 234.63-9.25L234.63-9.25Q234.63-6.15 236-4.6 237.38-3.05 240.38-3.05L240.38-3.05ZM268.22 0.6Q262.37 0.6 259.5-1.95 256.62-4.5 256.62-9.8L256.62-9.8Q256.62-14.65 258.12-18.53 259.62-22.4 262.82-24.65 266.02-26.9 270.82-26.9L270.82-26.9Q275.82-26.9 278.47-24.6 281.12-22.3 281.12-17.85L281.12-17.85Q281.12-16.3 280.72-14.15L280.72-14.15 280.32-11.95 261.27-11.95Q261.12-11.25 261.12-10.05L261.12-10.05Q261.12-6.5 262.85-4.78 264.57-3.05 268.12-3.05L268.12-3.05Q270.97-3.05 273-4.5 275.02-5.95 275.52-8.95L275.52-8.95 279.82-8.95Q279.07-4.35 275.87-1.88 272.67 0.6 268.22 0.6L268.22 0.6ZM261.92-15.6L276.47-15.6Q276.67-16.3 276.67-17.55L276.67-17.55Q276.67-23.25 270.67-23.25L270.67-23.25Q267.27-23.25 265.05-21.28 262.82-19.3 261.92-15.6L261.92-15.6ZM293.97 0.6Q288.62 0.6 286.02-1.23 283.42-3.05 283.42-5.9L283.42-5.9Q283.42-6.95 283.77-8.2L283.77-8.2 288.12-8.2Q287.92-7.45 287.92-6.85L287.92-6.85Q287.92-4.9 289.47-3.95 291.02-3 293.62-3L293.62-3Q296.52-3 298.5-4.17 300.47-5.35 300.47-7.35L300.47-7.35Q300.47-8.6 299.65-9.43 298.82-10.25 297.6-10.73 296.37-11.2 294.22-11.85L294.22-11.85Q291.67-12.6 290.1-13.28 288.52-13.95 287.42-15.18 286.32-16.4 286.32-18.4L286.32-18.4Q286.32-20.95 287.75-22.88 289.17-24.8 291.65-25.85 294.12-26.9 297.22-26.9L297.22-26.9Q301.82-26.9 304.27-25.2 306.72-23.5 306.72-20.8L306.72-20.8Q306.72-20.3 306.6-19.65 306.47-19 306.37-18.75L306.37-18.75 302.07-18.75Q302.22-19.35 302.22-19.9L302.22-19.9Q302.22-21.4 301.07-22.33 299.92-23.25 297.32-23.25L297.32-23.25Q293.82-23.25 292.42-22.03 291.02-20.8 291.02-19.4L291.02-19.4Q291.02-17.9 292.42-17.15 293.82-16.4 296.82-15.6L296.82-15.6Q299.52-14.85 301.17-14.15 302.82-13.45 304.02-12.1 305.22-10.75 305.22-8.55L305.22-8.55Q305.22-4.05 302-1.73 298.77 0.6 293.97 0.6L293.97 0.6Z" opacity="1" transform="matrix(1,0,0,1,0,0)" fill="#6a2055" class="wordmark-text-0" data-fill-palette-color="quaternary" id="text-0"></path></svg></g></svg></g><g transform="matrix(1,0,0,1,0,38.59377307910353)"><svg viewBox="0 0 213.1584412271571 16.60638936184389" height="16.60638936184389" width="213.1584412271571"><g transform="matrix(1,0,0,1,0,0)"><svg width="213.1584412271571" viewBox="4.15 -36.5 617.98 48.150000000000006" height="16.60638936184389" data-palette-color="#6a2055"><path d="M23.2-3.6Q23.6-3.4 23.83-2.83 24.05-2.25 24.05-1.6L24.05-1.6Q24.05-0.9 23.8-0.45 23.55 0 23.05 0L23.05 0 7.15 0Q6.1 0 5.48-0.6 4.85-1.2 4.85-2.25L4.85-2.25 4.8-28.45Q4.8-31.7 4.15-33.6L4.15-33.6Q4.85-34.2 5.58-34.43 6.3-34.65 7.6-34.65L7.6-34.65 22.7-34.65Q23.05-34.65 23.25-34.33 23.45-34 23.45-33.5L23.45-33.5Q23.45-32.8 23.13-32.05 22.8-31.3 22.3-31.1L22.3-31.1Q15.15-32.35 8.8-32.4L8.8-32.4 8.8-19.4 21.1-19.4Q21.25-18.8 21.25-18.2L21.25-18.2Q21.25-17.6 21.1-17L21.1-17 8.85-17 8.85-2.2Q15.1-2.25 23.2-3.6L23.2-3.6ZM53.3-3.65Q53.85-2.9 53.85-2.1L53.85-2.1Q53.85-1 52.82-0.25 51.8 0.5 50.35 0.5L50.35 0.5Q48.2 0.5 47.1-1 46-2.5 46-5.7L46-5.7 46-7.15Q44.35-3.6 41.52-1.53 38.7 0.55 35.35 0.55L35.35 0.55Q32.45 0.55 30.77-1.03 29.1-2.6 29.1-5.25L29.1-5.25Q29.1-8.2 31.35-10.25 33.6-12.3 37.4-13.35L37.4-13.35Q40.75-14.25 44.35-14.25L44.35-14.25Q45.35-14.25 45.8-14.2L45.8-14.2 45.8-15.5Q45.8-19.95 44.32-22.1 42.85-24.25 39.45-24.25L39.45-24.25Q37.25-24.25 35.75-23.3 34.25-22.35 34.25-20.2L34.25-20.2Q34.25-19.05 34.77-18.05 35.3-17.05 36.4-16.65L36.4-16.65Q35.6-15.65 34-15.65L34-15.65Q32.35-15.65 31.3-16.98 30.25-18.3 30.25-20.05L30.25-20.05Q30.25-22.95 32.8-24.5 35.35-26.05 39.8-26.05L39.8-26.05Q44.95-26.05 47.4-23.4 49.85-20.75 49.85-15.25L49.85-15.25 49.85-5.25Q49.85-2.6 51.65-2.6L51.65-2.6Q52.05-2.6 52.55-2.88 53.05-3.15 53.3-3.65L53.3-3.65ZM36.95-2.25Q38.95-2.25 41.02-3.73 43.1-5.2 44.47-7.6 45.85-10 45.9-12.6L45.9-12.6 44.75-12.65Q43-12.65 41.2-12.38 39.4-12.1 38.15-11.6L38.15-11.6Q35.95-10.8 34.7-9.4 33.45-8 33.45-6.1L33.45-6.1Q33.45-4.45 34.3-3.35 35.15-2.25 36.95-2.25L36.95-2.25ZM65.14-25.35Q65.94-25.35 67.27-25.4 68.59-25.45 69.39-25.5L69.39-25.5 69.34-24.4Q69.3-23.9 69-23.58 68.69-23.25 68.25-23.25L68.25-23.25 63.09-23.25 63.09-21.35 63.09-5.25Q63.09-3.95 63.7-3.25 64.3-2.55 65.5-2.55L65.5-2.55Q66.25-2.55 66.92-2.83 67.59-3.1 67.84-3.6L67.84-3.6Q68.39-2.85 68.39-2L68.39-2Q68.39-0.85 67.19-0.15 66 0.55 64.14 0.55L64.14 0.55Q61.8 0.55 60.45-0.93 59.09-2.4 59.09-5L59.09-5 59.09-23.25 58.39-23.25Q56.34-23.25 55.39-23.1L55.39-23.1 55.45-24.25Q55.49-25.35 56.55-25.35L56.55-25.35 59.09-25.35 59.09-29.8Q59.09-30.85 59.74-31.43 60.39-32 61.45-32L61.45-32Q62.7-32 63.74-31.1L63.74-31.1Q63.2-29.4 63.14-25.35L63.14-25.35 65.14-25.35ZM111.44-5.7Q111.44-2.05 112.09-0.35L112.09-0.35Q111.04 0.55 109.74 0.55L109.74 0.55Q108.74 0.55 108.09-0.05 107.44-0.65 107.44-1.65L107.44-1.65 107.39-17.1 91.09-17.1 91.09-5.7Q91.09-2.05 91.74-0.35L91.74-0.35Q90.69 0.55 89.39 0.55L89.39 0.55Q88.39 0.55 87.74-0.05 87.09-0.65 87.09-1.65L87.09-1.65 87.04-28.85Q87.04-32.3 86.39-34.2L86.39-34.2Q87.44-35.1 88.74-35.1L88.74-35.1Q89.79-35.1 90.44-34.52 91.09-33.95 91.09-32.9L91.09-32.9 91.09-19.5 107.39-19.5 107.39-28.85Q107.39-32.3 106.74-34.2L106.74-34.2Q107.79-35.1 109.09-35.1L109.09-35.1Q110.14-35.1 110.79-34.52 111.44-33.95 111.44-32.9L111.44-32.9 111.44-5.7ZM142.69-3.65Q143.24-2.9 143.24-2.1L143.24-2.1Q143.24-1 142.21-0.25 141.19 0.5 139.74 0.5L139.74 0.5Q137.59 0.5 136.49-1 135.39-2.5 135.39-5.7L135.39-5.7 135.39-7.15Q133.74-3.6 130.91-1.53 128.09 0.55 124.74 0.55L124.74 0.55Q121.84 0.55 120.16-1.03 118.49-2.6 118.49-5.25L118.49-5.25Q118.49-8.2 120.74-10.25 122.99-12.3 126.79-13.35L126.79-13.35Q130.14-14.25 133.74-14.25L133.74-14.25Q134.74-14.25 135.19-14.2L135.19-14.2 135.19-15.5Q135.19-19.95 133.71-22.1 132.24-24.25 128.84-24.25L128.84-24.25Q126.64-24.25 125.14-23.3 123.64-22.35 123.64-20.2L123.64-20.2Q123.64-19.05 124.16-18.05 124.69-17.05 125.79-16.65L125.79-16.65Q124.99-15.65 123.39-15.65L123.39-15.65Q121.74-15.65 120.69-16.98 119.64-18.3 119.64-20.05L119.64-20.05Q119.64-22.95 122.19-24.5 124.74-26.05 129.19-26.05L129.19-26.05Q134.34-26.05 136.79-23.4 139.24-20.75 139.24-15.25L139.24-15.25 139.24-5.25Q139.24-2.6 141.04-2.6L141.04-2.6Q141.44-2.6 141.94-2.88 142.44-3.15 142.69-3.65L142.69-3.65ZM126.34-2.25Q128.34-2.25 130.41-3.73 132.49-5.2 133.86-7.6 135.24-10 135.29-12.6L135.29-12.6 134.14-12.65Q132.39-12.65 130.59-12.38 128.79-12.1 127.54-11.6L127.54-11.6Q125.34-10.8 124.09-9.4 122.84-8 122.84-6.1L122.84-6.1Q122.84-4.45 123.69-3.35 124.54-2.25 126.34-2.25L126.34-2.25ZM152.49 0.5Q150.24 0.5 148.99-0.95 147.74-2.4 147.74-5.05L147.74-5.05 147.74-34.3Q147.74-35.35 148.39-35.93 149.04-36.5 150.09-36.5L150.09-36.5Q151.34-36.5 152.39-35.6L152.39-35.6Q151.99-34.3 151.86-32.25 151.74-30.2 151.74-25.85L151.74-25.85 151.74-5.25Q151.74-3.95 152.21-3.28 152.69-2.6 153.64-2.6L153.64-2.6Q154.19-2.6 154.71-2.88 155.24-3.15 155.49-3.65L155.49-3.65Q156.04-2.9 156.04-2.1L156.04-2.1Q156.04-0.95 155.01-0.23 153.99 0.5 152.49 0.5L152.49 0.5ZM183.68-3.65Q184.23-2.9 184.23-2.1L184.23-2.1Q184.23-1 183.21-0.25 182.18 0.5 180.73 0.5L180.73 0.5Q178.58 0.5 177.48-1 176.38-2.5 176.38-5.7L176.38-5.7 176.38-7.15Q174.73-3.6 171.91-1.53 169.08 0.55 165.73 0.55L165.73 0.55Q162.83 0.55 161.16-1.03 159.48-2.6 159.48-5.25L159.48-5.25Q159.48-8.2 161.73-10.25 163.98-12.3 167.78-13.35L167.78-13.35Q171.13-14.25 174.73-14.25L174.73-14.25Q175.73-14.25 176.18-14.2L176.18-14.2 176.18-15.5Q176.18-19.95 174.71-22.1 173.23-24.25 169.83-24.25L169.83-24.25Q167.63-24.25 166.13-23.3 164.63-22.35 164.63-20.2L164.63-20.2Q164.63-19.05 165.16-18.05 165.68-17.05 166.78-16.65L166.78-16.65Q165.98-15.65 164.38-15.65L164.38-15.65Q162.73-15.65 161.68-16.98 160.63-18.3 160.63-20.05L160.63-20.05Q160.63-22.95 163.18-24.5 165.73-26.05 170.18-26.05L170.18-26.05Q175.33-26.05 177.78-23.4 180.23-20.75 180.23-15.25L180.23-15.25 180.23-5.25Q180.23-2.6 182.03-2.6L182.03-2.6Q182.43-2.6 182.93-2.88 183.43-3.15 183.68-3.65L183.68-3.65ZM167.33-2.25Q169.33-2.25 171.41-3.73 173.48-5.2 174.86-7.6 176.23-10 176.28-12.6L176.28-12.6 175.13-12.65Q173.38-12.65 171.58-12.38 169.78-12.1 168.53-11.6L168.53-11.6Q166.33-10.8 165.08-9.4 163.83-8 163.83-6.1L163.83-6.1Q163.83-4.45 164.68-3.35 165.53-2.25 167.33-2.25L167.33-2.25ZM193.48 0.5Q191.23 0.5 189.98-0.95 188.73-2.4 188.73-5.05L188.73-5.05 188.73-34.3Q188.73-35.35 189.38-35.93 190.03-36.5 191.08-36.5L191.08-36.5Q192.33-36.5 193.38-35.6L193.38-35.6Q192.98-34.3 192.86-32.25 192.73-30.2 192.73-25.85L192.73-25.85 192.73-5.25Q192.73-3.95 193.21-3.28 193.68-2.6 194.63-2.6L194.63-2.6Q195.18-2.6 195.71-2.88 196.23-3.15 196.48-3.65L196.48-3.65Q197.03-2.9 197.03-2.1L197.03-2.1Q197.03-0.95 196.01-0.23 194.98 0.5 193.48 0.5L193.48 0.5ZM211.58-14.15L226.68-14.15 226.68-11.55 211.58-11.55 211.58-14.15ZM248.87-32.9L248.92-2.4Q254.77-2.45 261.97-3.75L261.97-3.75Q262.32-3.55 262.55-2.95 262.77-2.35 262.77-1.7L262.77-1.7Q262.77-0.95 262.52-0.48 262.27 0 261.77 0L261.77 0 247.22 0Q246.17 0 245.54-0.6 244.92-1.2 244.92-2.25L244.92-2.25 244.87-28.85Q244.87-32.3 244.22-34.2L244.22-34.2Q245.27-35.1 246.57-35.1L246.57-35.1Q247.62-35.1 248.25-34.52 248.87-33.95 248.87-32.9L248.87-32.9ZM270.42-30Q269.32-30 268.52-30.8 267.72-31.6 267.72-32.7L267.72-32.7Q267.72-33.85 268.52-34.63 269.32-35.4 270.42-35.4L270.42-35.4Q271.57-35.4 272.34-34.63 273.12-33.85 273.12-32.7L273.12-32.7Q273.12-31.6 272.34-30.8 271.57-30 270.42-30L270.42-30ZM272.62-5.7Q272.62-2.05 273.27-0.35L273.27-0.35Q272.22 0.55 270.97 0.55L270.97 0.55Q269.97 0.55 269.34-0.05 268.72-0.65 268.72-1.65L268.72-1.65 268.67-19.8Q268.67-23.25 268.02-25.15L268.02-25.15Q269.07-26.05 270.32-26.05L270.32-26.05Q271.32-26.05 271.94-25.48 272.57-24.9 272.57-23.85L272.57-23.85 272.62-5.7ZM298.26-25.7Q300.62-25.7 300.56-23.85L300.56-23.85Q300.56-22.75 300.12-21.6L300.12-21.6 291.76-0.1Q290.42 0.55 289.06 0.55L289.06 0.55Q287.21 0.55 286.71-0.95L286.71-0.95 278.81-22.45Q278.21-24.1 277.67-24.75L277.67-24.75Q278.51-25.7 280.01-25.7L280.01-25.7Q280.92-25.7 281.56-25.28 282.21-24.85 282.42-24.05L282.42-24.05 289.62-2.05 296.26-22.55Q296.51-23.8 296.51-24.15L296.51-24.15Q296.51-24.95 296.26-25.3L296.26-25.3Q297.21-25.7 298.26-25.7L298.26-25.7ZM323.76-6.45Q324.51-6.2 324.51-5.3L324.51-5.3Q324.51-4.8 324.21-3.95L324.21-3.95Q323.26-1.75 320.89-0.55 318.51 0.65 315.31 0.65L315.31 0.65Q309.81 0.65 306.71-2.78 303.61-6.2 303.61-12.55L303.61-12.55Q303.61-18.85 306.69-22.45 309.76-26.05 315.51-26.05L315.51-26.05Q319.66-26.05 322.16-24.18 324.66-22.3 324.66-18.85L324.66-18.85Q324.66-15.15 321.66-13.2 318.66-11.25 313.31-11.25L313.31-11.25Q310.36-11.25 307.91-11.6L307.91-11.6Q308.21-6.55 310.44-4.33 312.66-2.1 316.26-2.1L316.26-2.1Q319.01-2.1 321.01-3.23 323.01-4.35 323.76-6.45L323.76-6.45ZM315.36-24.25Q311.96-24.25 309.94-21.43 307.91-18.6 307.86-13.3L307.86-13.3Q310.26-13.1 311.76-13.05L311.76-13.05Q315.76-13.05 318.09-14.48 320.41-15.9 320.41-19.35L320.41-19.35Q320.41-22 318.96-23.13 317.51-24.25 315.36-24.25L315.36-24.25ZM345.06 0.55Q344.06 0.55 343.41-0.05 342.76-0.65 342.76-1.65L342.76-1.65 342.71-28.85Q342.71-32.3 342.06-34.2L342.06-34.2Q343.11-35.1 344.41-35.1L344.41-35.1Q345.46-35.1 346.11-34.52 346.76-33.95 346.76-32.9L346.76-32.9 346.76-5.7Q346.76-2.05 347.41-0.35L347.41-0.35Q346.36 0.55 345.06 0.55L345.06 0.55ZM376.41-5.7Q376.5-1.9 377.06-0.35L377.06-0.35Q376.06 0.55 374.75 0.55L374.75 0.55Q373.7 0.55 373.06-0.05 372.41-0.65 372.41-1.65L372.41-1.65 372.41-15.15Q372.36-19.5 371.18-21.6 370-23.7 367.2-23.7L367.2-23.7Q365.45-23.7 363.83-22.5 362.2-21.3 361.16-18.7 360.11-16.1 360.11-12.05L360.11-12.05Q360.11-5.6 360.2-3.65 360.31-1.7 360.81-0.35L360.81-0.35Q359.75 0.55 358.5 0.55L358.5 0.55Q357.45 0.55 356.81-0.1 356.16-0.75 356.16-1.85L356.16-1.85 356.16-20.3Q356.11-21.7 355.78-22.3 355.45-22.9 354.75-22.9L354.75-22.9Q353.81-22.9 353.45-22.1L353.45-22.1Q352.86-22.95 352.86-23.7L352.86-23.7Q352.86-24.75 353.66-25.38 354.45-26 355.86-26L355.86-26Q357.75-26 358.75-24.7 359.75-23.4 359.75-20.85L359.75-20.85 359.75-19.85Q360.81-22.8 363.06-24.43 365.31-26.05 368.36-26.05L368.36-26.05Q376.41-26.05 376.41-15.65L376.41-15.65 376.41-5.7ZM420.4-5.7Q420.4-2.05 421.05-0.35L421.05-0.35Q420 0.55 418.7 0.55L418.7 0.55Q417.7 0.55 417.05-0.05 416.4-0.65 416.4-1.65L416.4-1.65 416.35-17.1 400.05-17.1 400.05-5.7Q400.05-2.05 400.7-0.35L400.7-0.35Q399.65 0.55 398.35 0.55L398.35 0.55Q397.35 0.55 396.7-0.05 396.05-0.65 396.05-1.65L396.05-1.65 396-28.85Q396-32.3 395.35-34.2L395.35-34.2Q396.4-35.1 397.7-35.1L397.7-35.1Q398.75-35.1 399.4-34.52 400.05-33.95 400.05-32.9L400.05-32.9 400.05-19.5 416.35-19.5 416.35-28.85Q416.35-32.3 415.7-34.2L415.7-34.2Q416.75-35.1 418.05-35.1L418.05-35.1Q419.1-35.1 419.75-34.52 420.4-33.95 420.4-32.9L420.4-32.9 420.4-5.7ZM451.65-3.65Q452.2-2.9 452.2-2.1L452.2-2.1Q452.2-1 451.17-0.25 450.15 0.5 448.7 0.5L448.7 0.5Q446.55 0.5 445.45-1 444.35-2.5 444.35-5.7L444.35-5.7 444.35-7.15Q442.7-3.6 439.87-1.53 437.05 0.55 433.7 0.55L433.7 0.55Q430.8 0.55 429.12-1.03 427.45-2.6 427.45-5.25L427.45-5.25Q427.45-8.2 429.7-10.25 431.95-12.3 435.75-13.35L435.75-13.35Q439.1-14.25 442.7-14.25L442.7-14.25Q443.7-14.25 444.15-14.2L444.15-14.2 444.15-15.5Q444.15-19.95 442.67-22.1 441.2-24.25 437.8-24.25L437.8-24.25Q435.6-24.25 434.1-23.3 432.6-22.35 432.6-20.2L432.6-20.2Q432.6-19.05 433.12-18.05 433.65-17.05 434.75-16.65L434.75-16.65Q433.95-15.65 432.35-15.65L432.35-15.65Q430.7-15.65 429.65-16.98 428.6-18.3 428.6-20.05L428.6-20.05Q428.6-22.95 431.15-24.5 433.7-26.05 438.15-26.05L438.15-26.05Q443.3-26.05 445.75-23.4 448.2-20.75 448.2-15.25L448.2-15.25 448.2-5.25Q448.2-2.6 450-2.6L450-2.6Q450.4-2.6 450.9-2.88 451.4-3.15 451.65-3.65L451.65-3.65ZM435.3-2.25Q437.3-2.25 439.37-3.73 441.45-5.2 442.82-7.6 444.2-10 444.25-12.6L444.25-12.6 443.1-12.65Q441.35-12.65 439.55-12.38 437.75-12.1 436.5-11.6L436.5-11.6Q434.3-10.8 433.05-9.4 431.8-8 431.8-6.1L431.8-6.1Q431.8-4.45 432.65-3.35 433.5-2.25 435.3-2.25L435.3-2.25ZM461.44 0.5Q459.19 0.5 457.94-0.95 456.69-2.4 456.69-5.05L456.69-5.05 456.69-34.3Q456.69-35.35 457.34-35.93 458-36.5 459.05-36.5L459.05-36.5Q460.3-36.5 461.34-35.6L461.34-35.6Q460.94-34.3 460.82-32.25 460.69-30.2 460.69-25.85L460.69-25.85 460.69-5.25Q460.69-3.95 461.17-3.28 461.64-2.6 462.59-2.6L462.59-2.6Q463.14-2.6 463.67-2.88 464.19-3.15 464.44-3.65L464.44-3.65Q465-2.9 465-2.1L465-2.1Q465-0.95 463.97-0.23 462.94 0.5 461.44 0.5L461.44 0.5ZM492.64-3.65Q493.19-2.9 493.19-2.1L493.19-2.1Q493.19-1 492.17-0.25 491.14 0.5 489.69 0.5L489.69 0.5Q487.54 0.5 486.44-1 485.34-2.5 485.34-5.7L485.34-5.7 485.34-7.15Q483.69-3.6 480.87-1.53 478.04 0.55 474.69 0.55L474.69 0.55Q471.79 0.55 470.12-1.03 468.44-2.6 468.44-5.25L468.44-5.25Q468.44-8.2 470.69-10.25 472.94-12.3 476.74-13.35L476.74-13.35Q480.09-14.25 483.69-14.25L483.69-14.25Q484.69-14.25 485.14-14.2L485.14-14.2 485.14-15.5Q485.14-19.95 483.67-22.1 482.19-24.25 478.79-24.25L478.79-24.25Q476.59-24.25 475.09-23.3 473.59-22.35 473.59-20.2L473.59-20.2Q473.59-19.05 474.12-18.05 474.64-17.05 475.74-16.65L475.74-16.65Q474.94-15.65 473.34-15.65L473.34-15.65Q471.69-15.65 470.64-16.98 469.59-18.3 469.59-20.05L469.59-20.05Q469.59-22.95 472.14-24.5 474.69-26.05 479.14-26.05L479.14-26.05Q484.29-26.05 486.74-23.4 489.19-20.75 489.19-15.25L489.19-15.25 489.19-5.25Q489.19-2.6 490.99-2.6L490.99-2.6Q491.39-2.6 491.89-2.88 492.39-3.15 492.64-3.65L492.64-3.65ZM476.29-2.25Q478.29-2.25 480.37-3.73 482.44-5.2 483.82-7.6 485.19-10 485.24-12.6L485.24-12.6 484.09-12.65Q482.34-12.65 480.54-12.38 478.74-12.1 477.49-11.6L477.49-11.6Q475.29-10.8 474.04-9.4 472.79-8 472.79-6.1L472.79-6.1Q472.79-4.45 473.64-3.35 474.49-2.25 476.29-2.25L476.29-2.25ZM502.44 0.5Q500.19 0.5 498.94-0.95 497.69-2.4 497.69-5.05L497.69-5.05 497.69-34.3Q497.69-35.35 498.34-35.93 498.99-36.5 500.04-36.5L500.04-36.5Q501.29-36.5 502.34-35.6L502.34-35.6Q501.94-34.3 501.81-32.25 501.69-30.2 501.69-25.85L501.69-25.85 501.69-5.25Q501.69-3.95 502.17-3.28 502.64-2.6 503.59-2.6L503.59-2.6Q504.14-2.6 504.67-2.88 505.19-3.15 505.44-3.65L505.44-3.65Q505.99-2.9 505.99-2.1L505.99-2.1Q505.99-0.95 504.96-0.23 503.94 0.5 502.44 0.5L502.44 0.5ZM529.18 0.55Q527.43 0.55 526.88-0.95L526.88-0.95 520.13-22.45Q520.03-22.65 519.71-23.48 519.38-24.3 518.93-24.75L518.93-24.75Q519.88-25.7 521.28-25.7L521.28-25.7Q522.24-25.7 522.86-25.28 523.49-24.85 523.68-24.05L523.68-24.05 529.84-2.3 535.09-22.55Q535.34-23.7 535.34-24.15L535.34-24.15Q535.34-24.8 535.09-25.3L535.09-25.3Q536.24-25.8 537.78-25.8L537.78-25.8Q539.84-25.8 540.34-24.5L540.34-24.5 546.18-2.3 551.78-22.55Q552.03-23.8 552.03-24.15L552.03-24.15Q552.03-24.8 551.78-25.3L551.78-25.3Q552.74-25.7 553.78-25.7L553.78-25.7Q556.13-25.7 556.09-23.85L556.09-23.85Q556.09-22.75 555.63-21.6L555.63-21.6 548.38-0.1Q547.03 0.55 545.68 0.55L545.68 0.55Q544.84 0.55 544.16 0.18 543.49-0.2 543.28-0.95L543.28-0.95 537.78-21.55 532.13-0.1Q530.78 0.55 529.18 0.55L529.18 0.55ZM583.63-3.65Q584.18-2.9 584.18-2.1L584.18-2.1Q584.18-1 583.16-0.25 582.13 0.5 580.68 0.5L580.68 0.5Q578.53 0.5 577.43-1 576.33-2.5 576.33-5.7L576.33-5.7 576.33-7.15Q574.68-3.6 571.86-1.53 569.03 0.55 565.68 0.55L565.68 0.55Q562.78 0.55 561.11-1.03 559.43-2.6 559.43-5.25L559.43-5.25Q559.43-8.2 561.68-10.25 563.93-12.3 567.73-13.35L567.73-13.35Q571.08-14.25 574.68-14.25L574.68-14.25Q575.68-14.25 576.13-14.2L576.13-14.2 576.13-15.5Q576.13-19.95 574.66-22.1 573.18-24.25 569.78-24.25L569.78-24.25Q567.58-24.25 566.08-23.3 564.58-22.35 564.58-20.2L564.58-20.2Q564.58-19.05 565.11-18.05 565.63-17.05 566.73-16.65L566.73-16.65Q565.93-15.65 564.33-15.65L564.33-15.65Q562.68-15.65 561.63-16.98 560.58-18.3 560.58-20.05L560.58-20.05Q560.58-22.95 563.13-24.5 565.68-26.05 570.13-26.05L570.13-26.05Q575.28-26.05 577.73-23.4 580.18-20.75 580.18-15.25L580.18-15.25 580.18-5.25Q580.18-2.6 581.98-2.6L581.98-2.6Q582.38-2.6 582.88-2.88 583.38-3.15 583.63-3.65L583.63-3.65ZM567.28-2.25Q569.28-2.25 571.36-3.73 573.43-5.2 574.81-7.6 576.18-10 576.23-12.6L576.23-12.6 575.08-12.65Q573.33-12.65 571.53-12.38 569.73-12.1 568.48-11.6L568.48-11.6Q566.28-10.8 565.03-9.4 563.78-8 563.78-6.1L563.78-6.1Q563.78-4.45 564.63-3.35 565.48-2.25 567.28-2.25L567.28-2.25ZM608.38-23.65L608.43-2.45Q608.43 11.65 596.68 11.65L596.68 11.65Q593.08 11.65 590.6 10.35 588.13 9.05 588.13 6.25L588.13 6.25Q588.13 4.85 588.95 3.9 589.78 2.95 591.13 2.95L591.13 2.95Q592.48 2.95 593.08 3.7L593.08 3.7Q592.43 4.1 592.13 4.78 591.83 5.45 591.83 6.05L591.83 6.05Q591.83 8 593.25 8.97 594.68 9.95 596.68 9.95L596.68 9.95Q600.78 9.95 602.73 6.85 604.68 3.75 604.68-2.4L604.68-2.4Q604.68-4.05 604.83-6L604.83-6Q603.78-2.95 601.58-1.25 599.38 0.45 596.18 0.45L596.18 0.45Q592.33 0.45 590.48-1.98 588.63-4.4 588.58-10.05L588.58-10.05 588.58-19.75Q588.58-23.2 587.93-25.15L587.93-25.15Q589.03-26.05 590.28-26.05L590.28-26.05Q591.28-26.05 591.9-25.45 592.53-24.85 592.53-23.8L592.53-23.8 592.58-10.55Q592.58-5.95 593.65-3.88 594.73-1.8 597.23-1.8L597.23-1.8Q600.28-1.8 602.38-4.73 604.48-7.65 604.48-13.7L604.48-13.7Q604.48-20 604.38-21.9 604.28-23.8 603.78-25.15L603.78-25.15Q604.83-26.05 606.08-26.05L606.08-26.05Q607.08-26.05 607.73-25.4 608.38-24.75 608.38-23.65L608.38-23.65ZM617.13-35.9L618.08-9.05 621.03-9.05 621.83-35.9Q620.73-36.25 619.43-36.25L619.43-36.25Q618.18-36.25 617.13-35.9L617.13-35.9ZM619.43 0.65Q618.33 0.65 617.53-0.15 616.73-0.95 616.73-2.05L616.73-2.05Q616.73-3.2 617.53-3.98 618.33-4.75 619.43-4.75L619.43-4.75Q620.58-4.75 621.35-3.98 622.13-3.2 622.13-2.05L622.13-2.05Q622.13-0.95 621.35-0.15 620.58 0.65 619.43 0.65L619.43 0.65Z" opacity="1" transform="matrix(1,0,0,1,0,0)" fill="#6a2055" class="slogan-text-1" data-fill-palette-color="quaternary" id="text-1"></path></svg></g></svg></g></svg></g></svg></g><g transform="matrix(1,0,0,1,79.49620728736977,0)"><svg viewBox="0 0 54.16602665241757 76.28662449338934" height="76.28662449338934" width="54.16602665241757"><g><svg xmlns="http://www.w3.org/2000/svg" xmlns:xlink="http://www.w3.org/1999/xlink" version="1.1" x="0" y="0" viewBox="95 29.5 322 453.5" enable-background="new 0 0 512 512" xml:space="preserve" height="76.28662449338934" width="54.16602665241757" class="icon-icon-0" data-fill-palette-color="quaternary" id="icon-0"><g fill="#6a2055" data-fill-palette-color="quaternary"><path d="M282.817 220.66c-8.229 2.549-16.95 3.842-25.921 3.842-9.103 0-17.942-1.33-26.272-3.951-2.108-0.662-4.352 0.507-5.014 2.614-0.663 2.106 0.508 4.351 2.613 5.013 9.108 2.866 18.755 4.319 28.673 4.319 9.773 0 19.291-1.413 28.286-4.2 2.109-0.653 3.289-2.893 2.636-5.002S284.924 220.004 282.817 220.66z" fill="#6a2055" data-fill-palette-color="quaternary"></path><path d="M274.478 244.67c-5.593 1.108-11.527 1.67-17.64 1.67-6.199 0-12.214-0.578-17.877-1.717-2.716-0.544-5.343 1.209-5.888 3.916-0.545 2.707 1.208 5.343 3.915 5.888 6.312 1.27 12.99 1.913 19.85 1.913 6.764 0 13.353-0.626 19.583-1.86 2.709-0.537 4.47-3.168 3.933-5.876C279.817 245.896 277.192 244.132 274.478 244.67z" fill="#6a2055" data-fill-palette-color="quaternary"></path><path d="M381.414 347.581c-21.781-27.065-51.992-46.506-85.414-55.065V273c0-0.262-0.018-0.524-0.022-0.786C326.154 257.52 347 226.532 347 190.764V162c0-3.12-1.589-5.868-4-7.482V131v-14.972c0-47.712-38.804-86.528-86.5-86.528S170 68.316 170 116.028V131v23.518c-2.411 1.615-4 4.362-4 7.482v28.764c0 35.378 20.395 66.075 50.039 80.96C216.025 272.149 216 272.574 216 273v19.516c-33.422 8.559-63.632 28.001-85.414 55.065C107.638 376.094 95 412.028 95 448.763V478c0 2.761 2.238 5 5 5h312c2.762 0 5-2.239 5-5v-29.237C417 412.028 404.362 376.094 381.414 347.581zM216.555 310.604c1.999 11.973 9.332 22.157 19.468 28.027l-11.617 3.03c-0.883 0.23-1.685 0.697-2.32 1.35l-15.696 16.12 0.91-29.887L216.555 310.604zM295.533 310.11l9.502 19.135 0.91 29.887-15.696-16.12c-0.636-0.653-1.438-1.12-2.32-1.35l-11.847-3.091C286.304 332.611 293.664 322.257 295.533 310.11zM329 162v28.764c0 39.992-32.523 72.528-72.5 72.528S184 230.756 184 190.764V162c0-3.12-1.589-5.868-4-7.482V136h153v18.518C330.589 156.132 329 158.88 329 162zM180 116.028c0-42.198 34.317-76.528 76.5-76.528S333 73.831 333 116.028V126H180V116.028zM256.5 281.292c10.324 0 20.249-1.743 29.5-4.942v20.092V304c0 15.781-12.251 28.746-27.74 29.906-0.602-0.253-1.25-0.388-1.923-0.389-0.057-0.004-0.112-0.005-0.169-0.007-0.059 0.002-0.115 0.004-0.173 0.008-0.689 0-1.354 0.144-1.968 0.41C238.402 332.908 226 319.879 226 304v-7.558-20.446C235.534 279.421 245.803 281.292 256.5 281.292zM407 473h-58.101c0.065-0.323 0.101-0.657 0.101-1v-39c0-2.761-2.238-5-5-5s-5 2.239-5 5v39c0 0.343 0.035 0.677 0.101 1h-78.201c0.065-0.323 0.101-0.657 0.101-1V360c0-2.761-2.238-5-5-5s-5 2.239-5 5v112c0 0.343 0.035 0.677 0.101 1h-78.201c0.065-0.323 0.101-0.657 0.101-1v-39c0-2.761-2.238-5-5-5s-5 2.239-5 5v39c0 0.343 0.035 0.677 0.101 1H105v-24.237c0-34.462 11.854-68.169 33.376-94.912 18.13-22.526 42.485-39.398 69.636-48.527l-10.156 20.453c-0.32 0.645-0.497 1.352-0.52 2.071l-1.334 43.834c-0.062 2.061 1.146 3.949 3.045 4.755 0.631 0.267 1.294 0.397 1.952 0.397 1.322 0 2.622-0.525 3.583-1.512l23.695-24.335 26.863-7.008c0.287 0.006 0.571 0.021 0.859 0.021 0.391 0 0.775-0.019 1.163-0.029l26.894 7.016 23.695 24.335c0.961 0.987 2.26 1.512 3.583 1.512 0.658 0 1.321-0.13 1.952-0.397 1.898-0.806 3.107-2.694 3.045-4.755l-1.334-43.834c-0.022-0.72-0.199-1.426-0.52-2.071l-10.089-20.317c26.988 9.16 51.194 25.976 69.234 48.391C395.146 380.593 407 414.3 407 448.763V473z" fill="#6a2055" data-fill-palette-color="quaternary"></path></g></svg></g></svg></g><g></g></svg></g></svg></g></svg></g></svg></g><defs></defs></svg><rect width="342.85155851775386" height="342.85155851775386" fill="none" stroke="none" visibility="hidden"></rect></g></svg></g></svg>